<svg xmlns="http://www.w3.org/2000/svg" width="53" height="44" viewBox="0 0 53 44" class="Header_logoFigure___fmmT"><path fill="#00AF7E" d="M48.185 24.925l-3.54 9.495H40.5l-3.624-9.495h11.31zM48.185 10.683l-3.54 9.495h-17.01l-3.544-9.495h24.094z"></path><path fill="currentColor" d="M45.893 43.915l-9.4-.004-8.859-23.733-3.544-9.495-3.54 9.495-8.862 23.737H2.284l9.055-23.737 3.624-9.495L19.037 0h10.107l4.078 10.683 3.62 9.495 9.051 23.737z"></path><path fill="#00AF7E" d="M24.09 10.683l-3.54 9.495H3.544L0 10.683h24.09zM29.405 24.925l3.544 9.495H3.544L0 24.925h29.405z"></path><path fill="currentColor" d="M50.485 44c-.653 0-1.2-.224-1.65-.67a2.281 2.281 0 01-.665-1.655c0-.652.222-1.202.666-1.648.45-.454.996-.677 1.65-.677.653 0 1.199.223 1.642.676.45.445.672.997.672 1.649s-.222 1.202-.672 1.655c-.443.447-.989.67-1.643.67zm1.392-.906c.377-.386.562-.858.562-1.42 0-.56-.186-1.032-.562-1.414a1.88 1.88 0 00-1.392-.58c-.551 0-1.014.193-1.391.58-.378.386-.563.851-.563 1.415 0 .564.186 1.033.563 1.419a1.901 1.901 0 001.391.574c.552 0 1.014-.194 1.392-.574zm-1.133-1.331h-.707v1.046h-.396v-2.385h.931c.593 0 .89.205.89.615 0 .302-.147.493-.44.572.25.057.375.223.376.496v.194c0 .087.012.144.037.173.025.029.084.043.177.043h.043v.292h-.247c-.271 0-.407-.115-.407-.346v-.452c0-.165-.085-.248-.257-.248zm-.182-1.025h-.525v.755h.557c.3 0 .45-.133.45-.399 0-.237-.16-.356-.482-.356z"></path></svg>
